<?xml version="1.0" standalone="no"?>
<!DOCTYPE svg PUBLIC "-//W3C//DTD SVG 1.1//EN" "http://www.w3.org/Graphics/SVG/1.1/DTD/svg11.dtd" >
<svg>
<metadata>
Created by FontForge 20090622 at Tue Aug 22 18:28:11 2017
 By deploy user
Copyright (c) 2013 by ENDY. All rights reserved.
</metadata>
<defs>
<font id="Firenight-Regular" horiz-adv-x="478" >
  <font-face 
    font-family="Firenight"
    font-weight="400"
    font-stretch="normal"
    units-per-em="1000"
    panose-1="0 0 0 0 0 0 0 0 0 0"
    ascent="881"
    descent="-119"
    x-height="744"
    cap-height="800"
    bbox="0 -118 1119.2 1000"
    underline-thickness="50"
    underline-position="-49"
    unicode-range="U+0020-U+20AC"
  />
<missing-glyph horiz-adv-x="500" 
d="M125 63h250v756h-250v-756zM63 0v881h375v-881h-375z" />
    <glyph glyph-name=".notdef" horiz-adv-x="500" 
d="M125 63h250v756h-250v-756zM63 0v881h375v-881h-375z" />
    <glyph glyph-name=".null" horiz-adv-x="0" 
 />
    <glyph glyph-name="nonmarkingreturn" horiz-adv-x="333" 
 />
    <glyph glyph-name="space" unicode=" " horiz-adv-x="271" 
 />
    <glyph glyph-name="exclam" unicode="!" horiz-adv-x="213" 
d="M192 782l-42 -601l-128 -2l2 621zM21 66q0 28 20 48t49 21q26 2 47.5 -19.5t21.5 -49.5t-20 -48t-49 -20q-26 0 -47.5 23t-21.5 45z" />
    <glyph glyph-name="quotedbl" unicode="&#x22;" horiz-adv-x="275" 
d="M123 881l6 -29q-47 -25 -47 -60q0 -9 9.5 -14.5t22 -14.5t16.5 -27q6 -27 -5 -44q-7 -11 -23.5 -19t-30.5 -8q-24 0 -42.5 18.5t-18.5 58.5q0 73 36.5 106t76.5 33zM254 876l6 -29q-44 -23 -44 -51q0 -10 22 -25t25 -34q4 -25 -4 -37q-17 -27 -46 -27q-37 0 -59 39
q-23 42 11 104q17 31 44 45.5t45 14.5z" />
    <glyph glyph-name="numbersign" unicode="#" horiz-adv-x="588" 
d="M564 437l-109 5l-16 -61l98 4l3 -94l-125 -5l-35 -136h-125l34 132l-59 -2l-34 -130h-124l32 125l-81 -2l-3 93l108 4l23 86l-104 5l5 94l122 -6l31 118h125l-32 -124l58 -3l32 127h125l-34 -132l89 -5zM313 377l19 71l-58 2l-20 -75z" />
    <glyph glyph-name="dollar" unicode="$" 
d="M444 258q1 -35 -8.5 -73.5t-29 -75.5t-56.5 -61t-84 -25q-1 -14 -3 -32.5t-2 -24.5l-118 14q1 7 2.5 27t2.5 32q-129 51 -125 247l109 2q0 -67 29 -101q3 39 14 158q-61 49 -101 117t-32 145q7 64 54.5 108t113.5 52q3 49 5 78l118 -6q0 -2 -6 -92q66 -32 108 -107
l-67 -73q-17 37 -51 58q-2 -33 -14 -174q64 -42 101.5 -85.5t39.5 -107.5zM144 597q0 -35 46 -70q3 32 10 121q-56 -12 -56 -51zM334 204q7 34 -46 70q-9 -92 -11 -123q47 6 57 53z" />
    <glyph glyph-name="percent" unicode="%" horiz-adv-x="858" 
d="M523 6q-74 0 -126.5 46t-52.5 119q0 71 46 127.5t115 56.5q76 0 125 -53.5t49 -130.5q0 -69 -44 -117t-112 -48zM159 462q-68 0 -113.5 44t-45.5 112q0 73 46 124.5t118 51.5q65 0 112.5 -48t47.5 -113q0 -69 -48 -120t-117 -51zM634 698l-513 -696l-109 80l488 688z" />
    <glyph glyph-name="ampersand" unicode="&#x26;" horiz-adv-x="579" 
d="M549 249q-36 -63 -71 -110l54 -97l-115 -66q-18 28 -37 64q-67 -49 -143 -42q-102 8 -161 82q-57 71 -44 157q8 58 34.5 104.5t83.5 103.5q-80 134 -61 232q12 59 63 95.5t126 39.5q93 3 141 -46q43 -45 38 -121q-4 -51 -59 -128l-7 -10q-27 -37 -67 -79q19 -29 84 -154
q6 9 15.5 24.5t10.5 17.5zM247 146q37 -3 67 23q-2 3 -39 73t-49 90q-33 -36 -44.5 -59.5t-11.5 -51.5q0 -27 24.5 -49.5t52.5 -25.5zM248 543q53 53 53 80q1 32 -34 34q-7 1 -21 -7t-17 -24q-4 -21 0 -37t19 -46z" />
    <glyph glyph-name="quotesingle" unicode="'" horiz-adv-x="145" 
d="M21 659l-6 31q47 26 47 55q0 10 -23.5 25.5t-26.5 35.5q-5 24 4 40q18 28 48 28q40 0 63 -41q24 -44 -12 -110q-18 -33 -47 -48.5t-47 -15.5z" />
    <glyph glyph-name="parenleft" unicode="(" horiz-adv-x="297" 
d="M292 -5l-120 -79q-156 238 -151 460q3 152 46.5 276t111.5 208l111 -93q-99 -119 -104 -394q-5 -209 106 -378z" />
    <glyph glyph-name="parenright" unicode=")" horiz-adv-x="289" 
d="M123 -76l-115 75q117 175 117 428q0 80 -33.5 194.5t-63.5 171.5l121 64q43 -81 86 -206t43 -224q0 -266 -155 -503z" />
    <glyph glyph-name="asterisk" unicode="*" horiz-adv-x="300" 
d="M279 714l-80 -1l45 -48l-37 -34l-39 42l1 -67l-50 -1l-1 61l-51 -54l-36 34l62 66l-72 -1v50l65 1l-56 60l37 34l49 -53l-1 77l49 1l2 -92l64 67l36 -35l-56 -58h69v-49z" />
    <glyph glyph-name="plus" unicode="+" horiz-adv-x="418" 
d="M152 610l105 4v-137h144l4 -104h-148l-1 -150l-104 -4v154h-138l-4 105h142v132z" />
    <glyph glyph-name="comma" unicode="," horiz-adv-x="161" 
d="M27 -98l-6 31q47 26 47 55q0 9 -23.5 24.5t-26.5 35.5q-5 24 4 40q18 28 48 28q40 0 63 -41q24 -44 -12 -109q-18 -33 -46.5 -48.5t-47.5 -15.5z" />
    <glyph glyph-name="hyphen" unicode="-" horiz-adv-x="257" 
d="M14 373l-4 105l227 -1l4 -104h-227z" />
    <glyph glyph-name="period" unicode="." horiz-adv-x="177" 
d="M21 66q0 28 20 48t49 21q26 2 47.5 -19.5t21.5 -49.5t-20 -48t-49 -20q-26 0 -47.5 23t-21.5 45z" />
    <glyph glyph-name="slash" unicode="/" horiz-adv-x="391" 
d="M116 -14l-101 28l265 820l101 -28z" />
    <glyph glyph-name="zero" unicode="0" horiz-adv-x="505" 
d="M301 709q-6 6 -7 6q-13 0 -20 -1q-7 0 -19 -4q-23 -7 -39 -31q-52 -74 -52 -303q0 -134 10.5 -201.5t24 -81t38.5 -13.5q19 0 34 13.5t25.5 41.5t17.5 54t12 67.5t7 65t5 62.5q10 131 -2.5 214t-34.5 111zM240 -35q-140 0 -185 152q-17 54 -22 133q-3 45 -3 129
q0 451 257 451q69 0 117 -62q88 -114 68 -396q-29 -407 -232 -407z" />
    <glyph glyph-name="one" unicode="1" horiz-adv-x="291" 
d="M236 0l-122 5q14 322 20 561q-37 -17 -104 -17v122q33 0 55.5 12.5t33.5 35.5t15.5 41.5t6.5 44.5l120 -6q0 -211 -25 -799z" />
    <glyph glyph-name="two" unicode="2" horiz-adv-x="398" 
d="M232 0q-19 -1 -56.5 -2.5t-55.5 -2.5l-100 -6l41 90q96 220 139 339q24 66 34 126t6.5 96.5t-15.5 53.5q-3 4 -7 4q-21 0 -33 -23q-28 -52 7 -151l-101 -68q-74 162 -13 276q22 42 58.5 65t81.5 23q68 0 107 -56q40 -62 36.5 -165t-46.5 -223q-40 -108 -104 -256h17
l130 7l10 -121q-65 -6 -136 -6z" />
    <glyph glyph-name="three" unicode="3" horiz-adv-x="439" 
d="M314 513q56 -35 75.5 -92t19.5 -153q0 -139 -62 -216.5t-163 -78.5q-73 -1 -114.5 45.5t-59.5 128.5l110 45q4 -41 22.5 -63.5t42.5 -21.5q14 0 29 6.5t32.5 22t28.5 50t11 82.5q0 170 -183 180l5 123q88 -2 112 22q19 19 19 62q0 31 -10.5 41.5t-28.5 10.5q-2 0 -5 -0.5
t-10.5 -3.5t-13.5 -8.5t-12.5 -17t-9.5 -27.5l-121 24q15 79 64.5 117.5t107.5 38.5q76 0 119.5 -47.5t43.5 -127.5q0 -87 -49 -142z" />
    <glyph glyph-name="four" unicode="4" horiz-adv-x="407" 
d="M377 447v-129h-45q-10 -172 -10 -318h-128q0 164 9 318h-183l39 516l128 -9l-28 -378h52q4 56 8.5 112.5l8 98l6.5 74.5t5 50l2 18l128 -14l-1 -17l-5.5 -48.5t-7 -71t-7.5 -94l-8 -108.5h37z" />
    <glyph glyph-name="five" unicode="5" horiz-adv-x="417" 
d="M203 0q-42 0 -74 14t-49 31.5t-28.5 46.5t-14.5 45t-7 42l124 17q7 -51 15 -61t34 -10q32 0 39 12q20 31 20 131q0 56 -18 70q-24 21 -119 4l-73 -13l-6 479l293 -15l-6 -125l-161 8l3 -202q95 5 149 -40q63 -52 63 -166q0 -45 -3.5 -79.5t-15 -71.5t-30.5 -61t-53.5 -40
t-81.5 -16z" />
    <glyph glyph-name="six" unicode="6" horiz-adv-x="390" 
d="M170 383q-18 -80 -18 -151q0 -112 29 -139q3 -3 7 -3q13 1 22 12q35 39 26 134q-7 79 -19.5 109t-46.5 38zM303 21q-46 -49 -110 -52h-6q-51 0 -91 35q-66 65 -66 228q0 284 210 596l102 -69q-87 -127 -137 -259q82 -21 120 -99q16 -34 23 -78q7 -34 10 -75
q14 -145 -55 -227z" />
    <glyph glyph-name="seven" unicode="7" horiz-adv-x="416" 
d="M406 798l-38 -85q-71 -159 -112.5 -351t-41.5 -364h-120q0 162 34 340t95 339h-213v121h396z" />
    <glyph glyph-name="eight" unicode="8" horiz-adv-x="414" 
d="M196 611q24 18 36 46q15 34 -25 34q-28 0 -33.5 -17t3 -35t19.5 -28zM180 387q-4 -9 -5 -11q-31 -78 -28 -133.5t29 -94.5q22 -35 43 -35q20 0 35 33q12 24 13.5 53.5t-12 69t-43.5 76.5q-22 28 -32 42zM219 -14q-91 0 -150 93q-26 40 -39 91.5t-7.5 121t36.5 137.5
q15 34 49 81q-74 162 -23 248q36 59 112 59q18 0 36 -3q84 -16 110 -78q20 -49 -3.5 -103.5t-80.5 -132.5q24 -42 53 -75q47 -59 67 -124t15 -116t-25 -94q-23 -49 -63.5 -77t-86.5 -28z" />
    <glyph glyph-name="nine" unicode="9" horiz-adv-x="394" 
d="M212 704q-3 3 -8 2q-13 0 -23 -11q-35 -40 -26 -137q8 -81 20.5 -111t47.5 -38q18 82 18 154q0 112 -29 141zM151 -41l-102 69q91 135 138 262q-85 23 -121 101q-15 31 -24 79q-6 34 -10 76q-14 149 56 230q45 51 111 54h6q53 0 92 -37q67 -64 67 -230q0 -289 -213 -604z
" />
    <glyph glyph-name="colon" unicode=":" horiz-adv-x="161" 
d="M11 389q0 28 20.5 48t49.5 21q25 1 47 -20t22 -49q0 -29 -20 -49t-49 -20q-27 0 -48.5 23t-21.5 46zM11 66q0 28 20 48t49 21q26 2 47.5 -19.5t21.5 -49.5t-20 -48t-49 -20q-26 0 -47.5 23t-21.5 45z" />
    <glyph glyph-name="semicolon" unicode=";" horiz-adv-x="161" 
d="M27 -98l-6 31q47 26 47 55q0 9 -23.5 24.5t-26.5 35.5q-5 24 4 40q18 28 48 28q40 0 63 -41q24 -44 -12 -109q-18 -33 -46.5 -48.5t-47.5 -15.5zM11 389q0 28 20.5 48t49.5 21q25 1 47 -20t22 -49q0 -29 -20 -49t-49 -20q-27 0 -48.5 23t-21.5 46z" />
    <glyph glyph-name="equal" unicode="=" horiz-adv-x="439" 
d="M24 261l-4 105l399 3l-3 -106zM14 446l-4 105l405 3l4 -104z" />
    <glyph glyph-name="question" unicode="?" horiz-adv-x="393" 
d="M274 261l-26 -97q-97 -4 -122.5 8.5t-28.5 60.5q-3 38 23.5 105t68.5 131q6 10 16.5 24l16.5 22.5t14.5 22t10.5 22t4.5 23.5t-2.5 25q-7 28 -37.5 34.5t-47.5 -13.5q-5 -6 -8 -12.5t-5 -11.5t-2 -13t-0.5 -12t2 -13.5t3 -12t4 -13t3.5 -12.5l-104 -56
q-45 85 -46.5 159.5t50.5 123.5q39 32 98.5 36t115.5 -22q47 -21 77.5 -68t30.5 -94q0 -38 -5 -68t-17 -55.5t-20 -38.5t-27.5 -38.5l-25.5 -33.5q-66 -92 -63 -106q1 -10 13 -10.5t36 3.5zM123 71q0 27 19.5 46t47.5 21q25 1 45.5 -19.5t20.5 -47.5q0 -28 -19.5 -47.5
t-46.5 -19.5q-26 0 -46.5 22.5t-20.5 44.5z" />
    <glyph glyph-name="at" unicode="@" horiz-adv-x="642" 
d="M621 539q6 -67 -22 -208.5t-47 -194.5q-14 -37 -53.5 -60.5t-78.5 -23.5q-20 0 -35 4q-40 10 -61.5 48t-15.5 78q1 6 2.5 20t2.5 19q-16 -2 -21 -2q-32 0 -56 18q-21 18 -30.5 46.5t-9.5 47.5q-2 66 9 140q8 46 37.5 80.5t66.5 40.5q53 9 99 -31l63 -15
q-25 -114 -49 -312q-5 -37 1 -50q8 -1 15 1q22 61 48 179.5t21 163.5q-5 51 -41 72q-26 15 -59 25.5t-82 10t-90 -22.5q-38 -20 -64.5 -72.5t-36.5 -109.5t-8 -110t17 -78q14 -23 43.5 -35t59.5 -6l26 -132q-66 -7 -124 19.5t-93 79.5q-21 34 -29.5 108t-1.5 158.5t44 166.5
t100 122q47 29 120.5 34t136 -7.5t98.5 -33.5q39 -22 66 -73.5t32 -104.5zM289 329q0 -5 4 -6.5t10 0.5t12 5t12 7q12 102 20 147q-12 12 -23 12q-24 -12 -27 -26q-13 -89 -8 -139z" />
    <glyph glyph-name="A" unicode="A" horiz-adv-x="615" 
d="M428 6q-8 42 -39 175h-195l-44 -181h-140l210 798h204l181 -790zM237 355h114l-51 262z" />
    <glyph glyph-name="B" unicode="B" horiz-adv-x="503" 
d="M30 13l4 671l-3 110q9 1 29 1q45 0 93.5 2t97.5 -7.5t88.5 -26t65.5 -53.5t29 -91q5 -80 -44 -135q-14 -14 -22 -21q17 -10 40 -31q79 -75 74 -203q-3 -100 -72 -160q-80 -68 -240 -68q-58 0 -131 10zM323 613q-1 33 -29.5 49.5t-87.5 21.5l-1 -167q74 11 102 41
q18 21 16 55zM338 154q33 27 34 79q1 78 -41 119q-43 42 -127 48l-1 -287q94 6 135 41z" />
    <glyph glyph-name="C" unicode="C" horiz-adv-x="513" 
d="M410 603q-5 5 -14 19.5t-16 22.5t-23 15.5t-37 7.5q-47 0 -88.5 -84.5t-41.5 -191.5q0 -98 22.5 -148.5t63.5 -50.5q53 0 73.5 21.5t39.5 88.5l46.5 -18.5t55.5 -26.5q-9 -117 -66.5 -194t-140.5 -77q-44 0 -89.5 26t-85 75t-64.5 131.5t-25 184.5q0 82 20 151t53 115
t75.5 78.5t86 47t86.5 14.5q4 0 12 -1t29.5 -8t41 -19.5t42 -40t37.5 -65.5z" />
    <glyph glyph-name="D" unicode="D" horiz-adv-x="497" 
d="M197 634q0 -47 -2 -212.5t-3 -238.5q122 66 124 243q2 129 -45 177q-25 25 -74 31zM111 0h-81v80q0 62 4 349l3 287l1 73l73 7q34 2 50 2q143 0 225 -82q94 -95 91 -292q-1 -89 -26.5 -162.5t-64 -120.5t-88 -80t-96.5 -47t-91 -14z" />
    <glyph glyph-name="E" unicode="E" 
d="M448 661h-260v-128h236v-139h-230l-6 -230h260v-164h-260h-158v164v230v139v128v139h158h260v-139z" />
    <glyph glyph-name="F" unicode="F" horiz-adv-x="418" 
d="M398 661h-211v-126h210v-139h-210v-392h-157v796h368v-139z" />
    <glyph glyph-name="G" unicode="G" horiz-adv-x="521" 
d="M496 441q5 -72 5 -128q0 -47 -2.5 -85t-14 -86.5t-30.5 -81t-55.5 -55t-86.5 -22.5q-70 0 -123 25t-84.5 64t-51 95.5t-26.5 111.5t-7 119q0 246 135 352q75 60 153 60q49 0 100 -17.5t78 -50.5l-69 -102q-37 16 -109 14q-28 0 -63 -25q-102 -66 -102 -242
q0 -262 169 -262q41 0 47 175l-78 1l-5 123q74 7 220 17z" />
    <glyph glyph-name="H" unicode="H" horiz-adv-x="462" 
d="M294 800h138v-819h-138v344h-121l-5 -323l-138 2l11 793l138 -2l-4 -286h119v291z" />
    <glyph glyph-name="I" unicode="I" horiz-adv-x="209" 
d="M179 797v-796h-149v796h149z" />
    <glyph glyph-name="J" unicode="J" horiz-adv-x="448" 
d="M235 -11q-101 0 -163 56.5t-62 149.5h142q0 -10 1.5 -17.5t8.5 -20.5t25.5 -20t47.5 -7q5 2 14 12.5t18 32.5t9 47v578h142v-578q0 -92 -55.5 -162.5t-127.5 -70.5z" />
    <glyph glyph-name="K" unicode="K" horiz-adv-x="548" 
d="M353 558l185 -529l-144 -8l-134 389l-55 -86l-1 -324l-174 1l3 799l174 -1l-1 -264l166 260h132z" />
    <glyph glyph-name="L" unicode="L" horiz-adv-x="408" 
d="M187 796v-657h211v-139h-368v796h157z" />
    <glyph glyph-name="M" unicode="M" horiz-adv-x="675" 
d="M645 1l-176 -1l-3 415l-69 -209h-107l-76 225l-9 -458l-175 3l15 824l175 -3v-32l123 -364l120 363v17l175 1z" />
    <glyph glyph-name="N" unicode="N" horiz-adv-x="531" 
d="M30 14l4 773l98 4l243 -462l-10 470l118 1l18 -797l-142 -3h-3l-204 401l-2 -388z" />
    <glyph glyph-name="O" unicode="O" horiz-adv-x="550" 
d="M391 389v-1q-2 129 -26 217q-15 54 -37 76q-20 22 -54 23h-10h-12q-15 0 -20 -1q-14 -3 -19 -7q-9 -5 -18 -22q-11 -18 -17 -42q-25 -86 -27 -219t23 -218q17 -54 40 -77q20 -20 52 -24h4h5h4h4q5 0 11 2q9 3 20 12q25 23 42 70q32 85 35 211zM520 388q0 -83 -4 -125
q-5 -74 -23 -130q-25 -84 -74 -133q-33 -33 -79 -48q-25 -7 -47 -8q-3 -1 -11 -1h-6h-4l-10 1l-11 1q-46 3 -83 25q-42 23 -67 57q-41 54 -56 137q-10 50 -14 128q-1 41 -1 122q3 121 3 122q3 71 15 128q9 42 22 69q18 43 51 72q37 33 87 40q19 4 39 4l9 1h9q3 0 9 -0.5
t10 -0.5q45 -4 82 -19q43 -21 71 -55q44 -54 63 -135q20 -88 20 -252z" />
    <glyph glyph-name="P" unicode="P" horiz-adv-x="468" 
d="M309 637q-40 28 -102 37l-1 -181q37 5 63 15t38.5 20.5t19 26t7.5 23.5t1 20q0 20 -26 39zM205 369l-3 -365l-172 1l6 792h98q21 3 43 3q119 0 205 -64q76 -57 76 -138q0 -24 -4 -47t-20 -54.5t-41.5 -56t-74 -44.5t-113.5 -27z" />
    <glyph glyph-name="Q" unicode="Q" horiz-adv-x="540" 
d="M530 79l-61 -97q-42 28 -73 53q-51 -44 -139 -44q-56 0 -98 25.5t-66 63.5t-39 91.5t-19.5 99.5t-4.5 97q0 441 223 441q52 0 93 -19t67 -53t44 -74t27 -90t12.5 -92t3.5 -88q0 -157 -41 -260q31 -26 71 -54zM169 438v-13q-2 -295 88 -295q13 0 30 5q-40 40 -71 81l95 70
q6 -8 35 -42q15 75 15 137q0 261 -108 261q-17 0 -35.5 -20t-27.5 -39q-21 -49 -21 -145z" />
    <glyph glyph-name="R" unicode="R" horiz-adv-x="492" 
d="M336 597q0 19 -26 39q-39 29 -102 38l-1 -183q45 6 74 19t39.5 31.5t13 29.5t2.5 26zM203 1l-173 1l6 796l98 -1q61 9 130.5 -8t118.5 -53q77 -57 77 -139q0 -27 -6.5 -53.5t-24 -60t-57 -61.5t-96.5 -43l206 -348l-106 -62l-171 288z" />
    <glyph glyph-name="S" unicode="S" horiz-adv-x="537" 
d="M289 465q14 -8 45.5 -24t48.5 -25.5t43 -26t41 -32t30.5 -36.5t22.5 -46.5t7 -54.5q0 -108 -77.5 -174.5t-187.5 -66.5q-106 0 -180 74.5t-72 179.5v12l133 12q15 -45 44.5 -75t71.5 -30h-2q3 0 19 1t21.5 1.5t20.5 2.5t21 4.5t17.5 6.5t17 10l12 13.5t9 18t2.5 23.5
q0 23 -30.5 46t-76.5 44.5l-94 46t-88.5 62t-54.5 80.5q-8 25 -8 75q0 102 60 162.5t162 60.5q61 0 122 -30t91 -81q14 -25 16 -40l-120 -46q-28 23 -48 28.5t-63 7.5q-21 1 -42 -13.5t-25 -34.5q0 -17 -1.5 -28.5t4.5 -24t8.5 -20.5t11.5 -17l13.5 -13.5t14.5 -11t15 -9
l14 -7z" />
    <glyph glyph-name="T" unicode="T" horiz-adv-x="452" 
d="M442 800v-168h-136v-632h-152v632h-144v168h432z" />
    <glyph glyph-name="U" unicode="U" horiz-adv-x="504" 
d="M216 0q-51 0 -96 36q-49 40 -66.5 105t-22.5 157q-4 72 4.5 242t21.5 272l133 -17q-13 -101 -20.5 -245t-4.5 -205q7 -137 40 -164q7 -7 12 -6q8 1 23 16t29 42q30 56 48 124.5t24.5 149.5t8 128t0.5 125q-1 14 -1 39h135v-38q1 -86 -1 -143t-9.5 -155t-29.5 -182.5
t-57 -150.5q-56 -109 -143 -127q-12 -3 -28 -3z" />
    <glyph glyph-name="V" unicode="V" horiz-adv-x="559" 
d="M342 -2h-183q0 1 -29 156.5l-66 354.5l-54 290h154q9 -44 42.5 -252.5t54.5 -315.5q26 97 71.5 308t63.5 260l153 -10q-16 -44 -43 -141.5l-54.5 -205l-52 -208.5l-41 -168t-16.5 -68z" />
    <glyph glyph-name="W" unicode="W" horiz-adv-x="801" 
d="M402 329l-63 -329h-141l-188 800h154l96 -531l79 310l119 2l92 -321l95 540h146l-175 -787h-145z" />
    <glyph glyph-name="X" unicode="X" horiz-adv-x="606" 
d="M20 0l195 455l-166 345h151l86 -178l77 178h189l-165 -386l199 -414h-151l-120 247l-106 -247h-189z" />
    <glyph glyph-name="Y" unicode="Y" horiz-adv-x="565" 
d="M555 753l-240 -300l11 -450l-139 -3l-11 457l-166 290l121 69l124 -216l191 240z" />
    <glyph glyph-name="Z" unicode="Z" horiz-adv-x="528" 
d="M508 148v-140l-488 -8l4 147l289 529l-277 -8l-4 132l476 -1v-143l-281 -527z" />
    <glyph glyph-name="bracketleft" unicode="[" horiz-adv-x="337" 
d="M158 -65h-43l-85 4l6 68q3 38 3 412q-2 298 3 370l4 63h78q13 0 29 -0.5t36.5 -1.5t31.5 -1q9 0 35 -1.5t36 -1.5v-135q-12 0 -40 1.5t-37 1.5q-17 0 -26 1v-295q0 -316 -1 -351q24 0 72 2q7 0 21 0.5t21 1.5l5 -134q-7 -1 -20.5 -1t-20.5 -1q-72 -2 -108 -2z" />
    <glyph glyph-name="backslash" unicode="\" horiz-adv-x="381" 
d="M374 19l-101 -28l-264 820l100 28z" />
    <glyph glyph-name="bracketright" unicode="]" horiz-adv-x="369" 
d="M148 -71q-32 0 -115 9l19 138q82 -10 116 -7q0 7 -1 11q-3 71 -5 391q0 28 -1 122t-2 123h-14q-74 4 -114 4h-1v140h1q46 0 122 -4q30 -2 83 -4l90 -2l2 -66q0 -23 0.5 -75.5t1.5 -127t1 -109.5l6 -386v-9q4 -40 -3 -64q0 -2 -0.5 -4.5t-0.5 -3.5q-14 -56 -98 -68
q-1 0 -5 -0.5t-6 -0.5q-38 -7 -76 -7z" />
    <glyph glyph-name="underscore" unicode="_" horiz-adv-x="376" 
d="M14 -3l-4 104l349 3l4 -104z" />
    <glyph glyph-name="a" unicode="a" horiz-adv-x="477" 
d="M357 792l110 -780l-126 -8l-25 180l-122 -4l-37 -180l-147 4l159 796zM210 343l90 8l-41 294z" />
    <glyph glyph-name="b" unicode="b" horiz-adv-x="473" 
d="M309 456q72 -35 108 -78t36 -122q0 -110 -48 -183t-133 -73h-242l9 795l131 5q106 3 157.5 -55.5t51.5 -139.5q0 -11 -1 -21.5t-4 -20.5t-5 -17.5t-7 -16.5l-8 -14.5t-10.5 -15t-10.5 -14t-12 -15t-12 -14.5zM132 686l-2 -163h44q36 0 67 32.5t31 67.5q0 32 -30 49.5
t-56 15.5q-28 0 -54 -2zM216 121q65 0 95.5 34.5t30.5 88.5q0 46 -38 80t-71 32q-40 0 -76 -3l-4 -232h63z" />
    <glyph glyph-name="c" unicode="c" horiz-adv-x="556" 
d="M334 36h-18q-57 3 -108.5 29t-94 74t-68 126.5t-25.5 175.5q0 170 95 262q77 74 185 69q192 -7 246 -170l-143 -46q-7 21 -13 31.5t-30.5 22t-65.5 12.5q-45 2 -75 -27q-49 -46 -49 -154q0 -126 46 -189t107 -66q38 -1 52 7t38 40q6 8 10 12l118 -91q-2 -2 -4.5 -6
t-3.5 -6q-19 -25 -31 -37.5t-36 -31.5t-57 -28t-75 -9z" />
    <glyph glyph-name="d" unicode="d" horiz-adv-x="462" 
d="M137 744q7 -70 34 -260t33 -247q40 16 64 75t29 111.5t0 80.5q-4 25 -7.5 43t-10.5 46t-18.5 49t-28 42.5t-41 37t-54.5 22.5zM86 21l-67 743l-9 76l116 1q51 0 98 -15t90 -47t75.5 -88t46.5 -130q5 -28 5 -76t-7 -110.5t-30 -129.5t-60 -115q-75 -97 -258 -109z" />
    <glyph glyph-name="e" unicode="e" horiz-adv-x="419" 
d="M399 661h-212v-127h131v-139h-131v-230h212v-164h-212h-157v164v230v139v127v139h157h212v-139z" />
    <glyph glyph-name="f" unicode="f" horiz-adv-x="396" 
d="M376 666l-189 -5l7 -160l177 12v-139l-177 -12l3 -362h-157l-10 800l346 5v-139z" />
    <glyph glyph-name="g" unicode="g" horiz-adv-x="503" 
d="M216 -17q-53 0 -96 31q-59 45 -82.5 133t-15.5 163q0 8 1.5 24.5t2.5 25.5q6 67 11 103t17.5 94t35 105t56.5 87q26 31 68.5 47.5t89.5 12.5q87 -6 128 -71q9 -14 14.5 -31.5t8 -32t2 -36t-1 -34t-5 -36t-6.5 -32l-7.5 -32.5t-6.5 -27l-133 37q30 118 -11 130l-20 2
t-22 -11.5t-24 -34t-26 -65t-27 -103.5q-15 -69 -15 -121t11 -80.5t23.5 -42.5t26.5 -19q24 -8 49 5t33 42l16 57t11 40q-8 1 -16.5 2.5t-20.5 3t-19 2.5l17 136q131 -16 200 -48q-1 -6 -19.5 -87.5t-25.5 -108.5q-7 -23 -12 -44q-17 -63 -53.5 -108t-87.5 -64
q-32 -14 -69 -14z" />
    <glyph glyph-name="h" unicode="h" horiz-adv-x="449" 
d="M286 752h133v-744h-133v314h-118l-5 -326l-133 2l11 802l134 -2l-4 -290h115v244z" />
    <glyph glyph-name="i" unicode="i" horiz-adv-x="219" 
d="M189 780l-10 -779h-149l9 779h150z" />
    <glyph glyph-name="j" unicode="j" horiz-adv-x="248" 
d="M108 -113l-108 80l11 11l11.5 11.5l10 10.5t10.5 12l9 11.5t8.5 12.5l6.5 13t5.5 14.5t3 14.5t1.5 16v606h141v-578q0 -141 -110 -235z" />
    <glyph glyph-name="k" unicode="k" 
d="M478 716l-207 -221l176 -486l-129 -2l-143 386l-3 -3v-390h-142v800h142v-228l137 145z" />
    <glyph glyph-name="l" unicode="l" horiz-adv-x="364" 
d="M216 799l-29 -669l167 11v-139l-324 -10l29 807h157z" />
    <glyph glyph-name="m" unicode="m" horiz-adv-x="567" 
d="M148 0h-115l-3 800l112 -2l123 -373l131 368l112 3l29 -784l-115 -4l-17 472l-107 -259l-71 1l-81 197z" />
    <glyph glyph-name="n" unicode="n" horiz-adv-x="522" 
d="M30 0l7 764h110l228 -428l1 461l107 3l9 -762l-142 -3h-2l-211 394l-2 -429h-105z" />
    <glyph glyph-name="o" unicode="o" horiz-adv-x="446" 
d="M261 601q-19 0 -30.5 -1.5t-32 -12t-32.5 -31t-21.5 -62.5t-9.5 -101q0 -78 8.5 -118t24 -52.5t45.5 -12.5q81 0 102 187q8 77 -3 127t-32 69q-9 8 -19 8zM210 48q-31 0 -56.5 7.5t-44 18.5t-33 31.5t-24 37.5t-16 45.5t-9.5 47.5t-5 50.5t-2 48.5v47q0 366 237 366
q60 0 101 -46q84 -92 64 -324q-27 -330 -212 -330z" />
    <glyph glyph-name="p" unicode="p" horiz-adv-x="449" 
d="M30 546v198q43 0 68 -0.5t72 -4.5t76 -12t67 -24.5t60.5 -39t40 -58.5t20.5 -82q6 -100 -60 -162q-61 -58 -174 -73v-288h-170v546zM299 440q29 28 26 75q-4 48 -34 73t-91 36v-225q68 12 99 41z" />
    <glyph glyph-name="q" unicode="q" horiz-adv-x="544" 
d="M465 156q7 -7 20.5 -23t25.5 -28t23 -21l-70 -92q-18 14 -62 58q-55 -62 -129 -62q-58 0 -107 38q-70 53 -103 156t-33 209q0 60 13.5 128.5t40.5 137t77.5 113.5t114.5 45q8 0 26 -2q37 -6 66 -21t48 -31t34 -45.5t22.5 -49.5t13.5 -59.5t8 -59t5 -62.5q4 -56 4 -86
q0 -133 -38 -243zM359 262q5 53 5 127q0 19 -5 114q-9 153 -83 153q-27 0 -49.5 -33.5t-34 -80t-18 -87t-6.5 -64.5q0 -27 6 -65.5t17.5 -82.5t34.5 -74t53 -30q19 0 26 10q-70 74 -90 99l91 70z" />
    <glyph glyph-name="r" unicode="r" horiz-adv-x="461" 
d="M319 576q0 27 -14 49q-9 13 -20 22.5t-27.5 14.5t-24.5 7t-28 4l-20 2l-1 -210q77 10 106 38.5t29 72.5zM181 71l-151 1l5 692q214 14 303 -54q66 -49 66 -120q0 -22 -5.5 -47t-17.5 -54.5t-38.5 -53.5t-62.5 -34l171 -325h-129l-140 257z" />
    <glyph glyph-name="s" unicode="s" horiz-adv-x="409" 
d="M173 -11q-5 0 -19 2q-69 10 -103 75q-37 72 -10 220l135 -29q-10 -36 -8 -82.5t19 -46.5q8 0 16 15.5t9.5 43.5t-4 60.5t-27 71.5t-57.5 72q-51 48 -79 121t-4 170q18 66 87 107q56 32 131 11q33 -9 64 -33t44 -56q14 -35 11 -79t-21 -77l-122 66q16 30 -13 46
q-9 4 -18 -6t-15 -29t-7.5 -32.5t6 -27.5t11.5 -20.5t21.5 -24.5t24.5 -26q41 -45 62 -80q137 -214 -25 -384q-46 -48 -109 -48z" />
    <glyph glyph-name="t" unicode="t" horiz-adv-x="428" 
d="M418 762v-159h-128l4 -556h-144l-4 556h-136v159h408z" />
    <glyph glyph-name="u" unicode="u" horiz-adv-x="482" 
d="M241 0q-78 0 -131.5 59t-64.5 157q-5 51 -9.5 123.5t-5 190.5t8.5 214l124 -14q-21 -216 6 -452q1 -17 18 -51.5t38 -34.5q20 0 34 22t31 92l4 14q12 48 17 95.5t5 93t-1 105.5q0 17 -0.5 49t-0.5 47h146q0 -16 0.5 -47t0.5 -46q1 -68 1 -128t-6.5 -127t-20.5 -123
l-3 -14q-8 -32 -14 -52.5t-22 -57t-34.5 -58.5t-50 -39.5t-69.5 -17.5h-1z" />
    <glyph glyph-name="v" unicode="v" horiz-adv-x="475" 
d="M358 0h-236l-112 788l142 12l91 -621q21 122 44.5 328t30.5 293l147 -2q-8 -97 -54 -428.5t-53 -369.5z" />
    <glyph glyph-name="w" unicode="w" horiz-adv-x="725" 
d="M348 295l-61 -295l-160 8l-117 792h154l56 -526l78 247l119 2l69 -223l83 490h146l-150 -777h-145z" />
    <glyph glyph-name="x" unicode="x" horiz-adv-x="609" 
d="M10 4l204 432l-193 364h154l112 -210l99 210h192l-190 -401l211 -395h-154l-129 242l-114 -242h-192z" />
    <glyph glyph-name="y" unicode="y" horiz-adv-x="525" 
d="M515 761l-183 -350l12 -407l-141 -4l-11 408l-182 365l123 67l127 -264l131 250z" />
    <glyph glyph-name="z" unicode="z" horiz-adv-x="444" 
d="M418 137l-1 -138l-397 11l3 144l215 514h-205l-3 130h394v-141l-201 -517z" />
    <glyph glyph-name="braceleft" unicode="{" horiz-adv-x="360" 
d="M332 -118q-95 0 -153 58q-80 74 -72 213q1 34 -28 92.5t-79 69.5v105q47 12 77 63q21 36 6 77l-4 13q-11 32 -16 53t-9 55.5t6 67t33 62.5q19 25 50.5 40.5t50.5 19t53 8.5l13 2l23 -161q-5 0 -15 -2q-32 -2 -49 -9q-9 -17 14 -84l4 -13q18 -54 -5 -122.5t-82 -117.5
q66 -61 94.5 -111t24.5 -116q-3 -65 22 -90q16 -14 54 -11l15 -161q-10 -1 -28 -1z" />
    <glyph glyph-name="bar" unicode="|" horiz-adv-x="257" 
d="M198 0l-139 15l23 793l112 -9z" />
    <glyph glyph-name="braceright" unicode="}" horiz-adv-x="298" 
d="M36 -118h-10l10 162q41 5 62.5 39.5t17.5 72.5q-3 38 -5 73.5t13 72t48 59.5q-3 2 -17.5 14t-21.5 18.5t-20 22t-19.5 30t-12.5 37t-6 47.5q0 6 -1.5 34.5t-1.5 36.5v19q0 72 -11 89q-4 6 -12.5 7.5t-43.5 1.5h-5v163h5q31 0 49 -1.5t47.5 -8.5t53.5 -26t43 -49
q18 -27 26.5 -63t9.5 -56t1 -58q0 -3 -0.5 -9t-0.5 -9q0 -33 -7 -70q-5 -20 -1 -38q28 -49 59 -49l13 -119q-25 -5 -32.5 -57.5t-2.5 -94.5q14 -123 -24 -185q-26 -43 -86 -74.5t-117 -31.5z" />
    <glyph glyph-name="guillemotleft" unicode="&#xab;" horiz-adv-x="516" 
d="M513 218l-126 -76l-41 69q-69 118 -98 164l-20 32l15 36q23 56 94 188q17 30 30 57l129 -69l-9 -17.5l-11.5 -21.5l-10.5 -20q-48 -88 -72 -140l79 -133q23 -41 41 -69zM317 217l-112 -96q-66 80 -164 242l-19 32l13 34q48 120 127 271l129 -69q-72 -139 -106 -222
q79 -128 132 -192z" />
    <glyph glyph-name="plusminus" unicode="&#xb1;" horiz-adv-x="418" 
d="M14 118l-4 105l390 -1l4 -104h-390zM152 667l105 4v-137h144l4 -104h-148l-1 -150l-104 -4v154h-138l-4 105h142v132z" />
    <glyph glyph-name="guillemotright" unicode="&#xbb;" horiz-adv-x="535" 
d="M148 145l-124 75q4 6 18 30l22 37l78 130q-16 34 -71 136l-31 57l128 68l30 -56q69 -127 92 -183l15 -35l-20 -32q-24 -36 -97 -159zM327 126l-110 93q47 55 131 187q-32 76 -106 217l128 67q78 -147 125 -264l14 -34l-19 -31q-33 -54 -83 -127.5t-80 -107.5z" />
    <glyph glyph-name="uni0401" unicode="&#x401;" 
d="M267 897q0 28 20 48t49 21q26 1 47.5 -20t21.5 -49q0 -29 -20.5 -49t-48.5 -20q-26 0 -47.5 23t-21.5 46zM77 897q0 28 20 48t49 21q26 1 47.5 -20t21.5 -49q0 -29 -20.5 -49t-48.5 -20q-26 0 -47.5 23t-21.5 46zM188 661h260v139h-260h-158v-139v-128v-139v-230v-164
h158h260v164h-260l6 230h230v139h-236v128z" />
    <glyph glyph-name="uni0406" unicode="&#x406;" horiz-adv-x="257" 
d="M198 0l-139 15l23 793l112 -9z" />
    <glyph glyph-name="uni0410" unicode="&#x410;" horiz-adv-x="635" 
d="M438 6q-8 42 -39 175h-195l-44 -181h-140l210 798h204l181 -790zM247 355h114l-51 262z" />
    <glyph glyph-name="uni0411" unicode="&#x411;" horiz-adv-x="469" 
d="M199 678l2 -259q108 -11 178 -66.5t70 -156.5q0 -61 -46 -108t-108 -68.5t-121 -20.5q-96 0 -138 1q-6 600 -6 798h101.5h140.5h103q-2 -63 0 -120q-135 -3 -176 0zM302 158q26 17 26 38q0 4 -1 10.5t-7.5 22t-18.5 28.5t-38 25.5t-61 16.5l1 -178q63 9 99 37z" />
    <glyph glyph-name="uni0412" unicode="&#x412;" horiz-adv-x="503" 
d="M30 13l4 671l-3 110q9 1 29 1q45 0 93.5 2t97.5 -7.5t88.5 -26t65.5 -53.5t29 -91q5 -80 -44 -135q-14 -14 -22 -21q17 -10 40 -31q79 -75 74 -203q-3 -100 -72 -160q-80 -68 -240 -68q-58 0 -131 10zM323 613q-1 33 -29.5 49.5t-87.5 21.5l-1 -167q74 11 102 41
q18 21 16 55zM338 154q33 27 34 79q1 78 -41 119q-43 42 -127 48l-1 -287q94 6 135 41z" />
    <glyph glyph-name="uni0413" unicode="&#x413;" horiz-adv-x="417" 
d="M180 642l-12 -642l-158 3l16 797h361v-158h-207z" />
    <glyph glyph-name="uni0414" unicode="&#x414;" horiz-adv-x="539" 
d="M472 118h47v-120v-109h-114l-18 109h-259v-109h-108v109v120h75q27 23 43 127q9 60 19.5 202t12.5 231l4 122l239 -7h59v-675zM275 625q-18 -308 -31 -397q-13 -75 -25 -110h124v505z" />
    <glyph glyph-name="uni0415" unicode="&#x415;" 
d="M448 661h-260v-128h236v-139h-230l-6 -230h260v-164h-260h-158v164v230v139v128v139h158h260v-139z" />
    <glyph glyph-name="uni0416" unicode="&#x416;" horiz-adv-x="869" 
d="M673 558l186 -529l-145 -8l-134 389l-55 -86l-1 -324h-88h-89l-1 324l-55 86l-134 -410l-147 9l186 549l-153 237h134l168 -260l-1 264h9v1h83h85v-1h6l-1 -264l166 260h132z" />
    <glyph glyph-name="uni0417" unicode="&#x417;" horiz-adv-x="519" 
d="M236 -5q-136 0 -226 150l113 67q55 -90 117 -86q36 1 72.5 42.5t36.5 75.5q0 30 -43.5 64t-102.5 34v132q79 0 131 55q23 24 23 44q-2 38 -26 71.5t-68 33.5q-70 0 -95 -64l-123 47q27 71 84 110t134 39q98 0 159.5 -70t66.5 -161q3 -74 -59 -141q-19 -19 -36 -32
q87 -72 87 -162q0 -85 -72 -165t-163 -84h-10z" />
    <glyph glyph-name="uni0418" unicode="&#x418;" horiz-adv-x="531" 
d="M497 787l4 -773l-120 -1l-2 388l-205 -401h-2l-142 3l18 797l118 -1l-10 -470l243 462z" />
    <glyph glyph-name="uni0419" unicode="&#x419;" horiz-adv-x="526" 
d="M496 14l-3 765l-143 -3l-194 -439l8 456l-117 -1l-17 -789l140 -3h3l204 476l2 -464zM275 840q-69 0 -111.5 39t-42.5 103h97q0 -45 57 -45q3 1 9.5 8.5t12.5 22.5t6 32h97q0 -63 -38 -111.5t-87 -48.5z" />
    <glyph glyph-name="uni041A" unicode="&#x41a;" horiz-adv-x="548" 
d="M353 558l185 -529l-144 -8l-134 389l-55 -86l-1 -324l-174 1l3 799l174 -1l-1 -264l166 260h132z" />
    <glyph glyph-name="uni041B" unicode="&#x41b;" horiz-adv-x="510" 
d="M383 793l97 2q-3 -198 0 -795l-168 -1v617l-71 2q-17 -307 -32 -410l-10 -56.5t-17.5 -59t-31 -59.5t-49 -39.5t-72.5 -17.5l-19 138q32 11 51 33t29 78q10 60 20 205.5t13 243.5l4 126z" />
    <glyph glyph-name="uni041C" unicode="&#x41c;" horiz-adv-x="675" 
d="M645 1l-176 -1l-3 415l-69 -209h-107l-76 225l-9 -458l-175 3l15 824l175 -3v-32l123 -364l120 363v17l175 1z" />
    <glyph glyph-name="uni041D" unicode="&#x41d;" horiz-adv-x="462" 
d="M294 800h138v-819h-138v344h-121l-5 -323l-138 2l11 793l138 -2l-4 -286h119v291z" />
    <glyph glyph-name="uni041E" unicode="&#x41e;" horiz-adv-x="530" 
d="M381 389v-1q-2 129 -26 217q-15 54 -37 76q-20 22 -54 23h-10h-12q-15 0 -20 -1q-14 -3 -19 -7q-9 -5 -18 -22q-11 -18 -17 -42q-25 -86 -27 -219t23 -218q17 -54 40 -77q20 -20 52 -24h4h5h4h4q5 0 11 2q9 3 20 12q25 23 42 70q32 85 35 211zM510 388q0 -83 -4 -125
q-5 -74 -23 -130q-25 -84 -74 -133q-33 -33 -79 -48q-25 -7 -47 -8q-3 -1 -11 -1h-6h-4l-10 1l-11 1q-46 3 -83 25q-42 23 -67 57q-41 54 -56 137q-10 50 -14 128q-1 41 -1 122q3 121 3 122q3 71 15 128q9 42 22 69q18 43 51 72q37 33 87 40q19 4 39 4l9 1h9q3 0 9 -0.5
t10 -0.5q45 -4 82 -19q43 -21 71 -55q44 -54 63 -135q20 -88 20 -252z" />
    <glyph glyph-name="uni041F" unicode="&#x41f;" 
d="M46 797l402 3v-798h-123v634h-121l-13 -655l-161 3z" />
    <glyph glyph-name="uni0420" unicode="&#x420;" horiz-adv-x="468" 
d="M309 637q-40 28 -102 37l-1 -181q37 5 63 15t38.5 20.5t19 26t7.5 23.5t1 20q0 20 -26 39zM205 369l-3 -365l-172 1l6 792h98q21 3 43 3q119 0 205 -64q76 -57 76 -138q0 -24 -4 -47t-20 -54.5t-41.5 -56t-74 -44.5t-113.5 -27z" />
    <glyph glyph-name="uni0421" unicode="&#x421;" horiz-adv-x="513" 
d="M410 603q-5 5 -14 19.5t-16 22.5t-23 15.5t-37 7.5q-47 0 -88.5 -84.5t-41.5 -191.5q0 -98 22.5 -148.5t63.5 -50.5q53 0 73.5 21.5t39.5 88.5l46.5 -18.5t55.5 -26.5q-9 -118 -66 -194.5t-141 -76.5q-44 0 -89.5 26t-85 75t-64.5 131.5t-25 184.5q0 82 20 151t53 115
t75.5 78.5t86 47t86.5 14.5q4 0 12 -1t29.5 -8t41 -19.5t42 -40t37.5 -65.5z" />
    <glyph glyph-name="uni0422" unicode="&#x422;" horiz-adv-x="472" 
d="M452 800v-168h-136v-632h-152v632h-144v168h432z" />
    <glyph glyph-name="uni0423" unicode="&#x423;" horiz-adv-x="529" 
d="M10 800h124l123 -247l89 247h178l-317 -800h-178l151 406z" />
    <glyph glyph-name="uni0424" unicode="&#x424;" horiz-adv-x="777" 
d="M757 419q0 -126 -77 -203t-196 -100v-116h-177v115q-135 25 -213 112q-84 93 -73 221q11 122 88 202t198 99v51h177v-57q127 -27 200 -113t73 -211zM196 321q39 -43 111 -64v350q-57 -14 -99 -54t-49 -117q-6 -69 37 -115zM484 258q134 38 134 161q0 136 -134 180v-341z
" />
    <glyph glyph-name="uni0425" unicode="&#x425;" horiz-adv-x="606" 
d="M20 0l195 455l-166 345h151l86 -178l77 178h189l-165 -386l199 -414h-151l-120 247l-106 -247h-189z" />
    <glyph glyph-name="uni0426" unicode="&#x426;" horiz-adv-x="510" 
d="M490 65l10 -163l-112 -7l-7 113l-337 -4v11h-2l-12 783l137 2l10 -620l120 2l-10 616l137 2l10 -616l55 1z" />
    <glyph glyph-name="uni0427" unicode="&#x427;" horiz-adv-x="573" 
d="M543 0l-193 -3l-5 305q-50 -8 -87 -8q-98 0 -156 45q-72 55 -72 161v280h145v-280q0 -35 15 -46q37 -27 153 -5l-5 348l193 3z" />
    <glyph glyph-name="uni0428" unicode="&#x428;" horiz-adv-x="710" 
d="M680 -1l-636 -6l-14 805l139 2l10 -629l121 1l-11 625l140 3l11 -627l97 1l-10 624l140 2z" />
    <glyph glyph-name="uni0429" unicode="&#x429;" horiz-adv-x="748" 
d="M727 176l11 -1l-9 -272l-114 4l4 95l-576 -4v10l-13 790l139 2l10 -626l120 1l-10 623l139 2l10 -623h63l-10 621l138 2l10 -621h10h78v-3z" />
    <glyph glyph-name="uni042A" unicode="&#x42a;" horiz-adv-x="660" 
d="M576 330q58 -56 53 -148q-3 -77 -60 -126q-73 -61 -224 -61q-11 0 -34.5 2t-36.5 2h-113v682l-131 5l5 112l197 -8h104v-388q169 0 240 -72zM517 187q2 44 -20 64q-40 40 -161 38v-182q117 -2 160 35q20 17 21 45z" />
    <glyph glyph-name="uni042B" unicode="&#x42b;" horiz-adv-x="680" 
d="M650 800v-804h-161v804h161zM305 153q-38 -28 -100 -37l-1 179q44 -5 72.5 -18t39 -31t13 -29t2.5 -26q0 -19 -26 -38zM203 418l-3 360l-170 -1l6 -782l97 1q21 -3 42 -3q118 0 203 63q75 55 75 135q0 23 -4 46t-19.5 54.5t-41 55.5t-73.5 44t-112 27z" />
    <glyph glyph-name="uni042C" unicode="&#x42c;" horiz-adv-x="470" 
d="M206 433q65 -7 113.5 -27t74.5 -45t42 -56.5t20 -54.5t4 -47q0 -82 -76 -138q-41 -30 -96.5 -47.5t-109.5 -17.5q-22 0 -43 3h-99l-6 796l173 1zM310 164q26 20 26 39q0 15 -2.5 26t-13 29.5t-39.5 31.5t-74 19l1 -183q62 9 102 38z" />
    <glyph glyph-name="uni042D" unicode="&#x42d;" horiz-adv-x="753" 
d="M395 804q142 -25 235 -135.5t93 -256.5q0 -93 -46 -188t-129.5 -163t-179.5 -76q-30 -2 -46 -2q-189 0 -292 137l109 81q32 -41 81 -64.5t137 -16.5q67 5 126.5 65t87.5 140h-329v173h329q-22 65 -73.5 112t-126.5 60q-62 11 -128 -11t-109 -60l-89 103q63 55 157.5 87.5
t192.5 14.5z" />
    <glyph glyph-name="uni042E" unicode="&#x42e;" horiz-adv-x="768" 
d="M657 755q100 -107 77 -387q-33 -393 -254 -393q-49 0 -86.5 14t-61.5 41t-40 58t-24 73.5t-11 77t-4 79.5h-84l-5 -314l-134 2l11 771l134 -2l-4 -278h89q36 313 276 313q71 0 121 -55zM600 380q10 112 -3 185t-38 99q-11 12 -23 12q-23 0 -36.5 -2t-37.5 -17.5t-38 -45
t-25.5 -90.5t-11.5 -147q0 -113 10 -171t28.5 -76.5t54.5 -18.5q96 0 120 272z" />
    <glyph glyph-name="uni042F" unicode="&#x42f;" horiz-adv-x="492" 
d="M462 2l-173 -1l-2 256l-170 -288l-107 62l206 348q-57 15 -96.5 43t-57 61.5t-24 60t-6.5 53.5q0 82 77 139q49 36 118.5 53t130.5 8l98 1zM156 597q0 -15 2.5 -26t13 -29.5t39.5 -31.5t74 -19l-1 183q-63 -9 -102 -38q-26 -20 -26 -39z" />
    <glyph glyph-name="uni0430" unicode="&#x430;" horiz-adv-x="497" 
d="M367 792l110 -780l-126 -8l-25 180l-122 -4l-37 -180l-147 4l159 796zM220 343l90 8l-41 294z" />
    <glyph glyph-name="uni0431" unicode="&#x431;" horiz-adv-x="445" 
d="M196 501q61 -6 107 -25t70.5 -42.5t39 -53.5t18.5 -52t4 -44q0 -78 -72 -130q-39 -29 -91 -45.5t-103 -15.5q-14 0 -134 2l-5 637h334v-117h-170zM294 247q25 20 25 37q0 15 -2.5 25t-12.5 27.5t-37 30t-70 17.5l1 -172q60 9 96 35z" />
    <glyph glyph-name="uni0432" unicode="&#x432;" horiz-adv-x="473" 
d="M309 456q72 -35 108 -78t36 -122q0 -110 -48 -183t-133 -73h-242l9 795l131 5q106 3 157.5 -55.5t51.5 -139.5q0 -11 -1 -21.5t-4 -20.5t-5 -17.5t-7 -16.5l-8 -14.5t-10.5 -15t-10.5 -14t-12 -15t-12 -14.5zM132 686l-2 -163h44q36 0 67 32.5t31 67.5q0 32 -30 49.5
t-56 15.5q-28 0 -54 -2zM216 121q65 0 95.5 34.5t30.5 88.5q0 46 -38 80t-71 32q-40 0 -76 -3l-4 -232h63z" />
    <glyph glyph-name="uni0433" unicode="&#x433;" horiz-adv-x="417" 
d="M201 642l-13 -642l-158 3l16 797h361v-158h-206z" />
    <glyph glyph-name="uni0434" unicode="&#x434;" horiz-adv-x="530" 
d="M471 176h49v-291h-112v117h-286v-117h-112v291h73q18 136 27 506q2 107 3 118l347 -5zM221 624q-7 -305 -25 -448h101l-9 447z" />
    <glyph glyph-name="uni0435" unicode="&#x435;" horiz-adv-x="419" 
d="M399 661h-212v-127h131v-139h-131v-230h212v-164h-212h-157v164v230v139v127v139h157h212v-139z" />
    <glyph glyph-name="uni0436" unicode="&#x436;" horiz-adv-x="714" 
d="M430 0h-143v390l-3 3l-142 -386l-130 2l177 486l-179 304l169 1l108 -228v228h143l-1 -228l97 229l170 -1l-169 -305l177 -486l-130 -2l-142 386l-3 -3z" />
    <glyph glyph-name="uni0437" unicode="&#x437;" horiz-adv-x="503" 
d="M256 37q-72 0 -141 39t-105 91l107 72q19 -27 60.5 -50.5t82.5 -22.5q35 1 64.5 34t29.5 59q0 27 -46 65t-104 38v129q76 0 114 40q13 13 12 26q-1 30 -19 53t-63 23q-35 0 -53.5 -14.5t-32.5 -47.5l-119 52q60 139 205 139q100 0 153 -56.5t58 -140.5q5 -69 -48 -123
q-6 -7 -20 -19q92 -74 92 -164q0 -78 -64.5 -148t-153.5 -74h-9z" />
    <glyph glyph-name="uni0438" unicode="&#x438;" horiz-adv-x="531" 
d="M494 764l7 -764h-105l-2 429l-211 -394h-2l-142 3l9 762l107 -3l1 -461l228 428h110z" />
    <glyph glyph-name="uni0439" unicode="&#x439;" horiz-adv-x="526" 
d="M496 14l-3 765l-143 -3l-194 -439l8 456l-117 -1l-17 -789l140 -3h3l204 476l2 -464zM275 840q-69 0 -111.5 39t-42.5 103h97q0 -45 57 -45q3 1 9.5 8.5t12.5 22.5t6 32h97q0 -63 -38 -111.5t-87 -48.5z" />
    <glyph glyph-name="uni043A" unicode="&#x43a;" 
d="M478 716l-207 -221l176 -486l-129 -2l-143 386l-3 -3v-390h-142v800h142v-228l137 145z" />
    <glyph glyph-name="uni043B" unicode="&#x43b;" horiz-adv-x="480" 
d="M97 748l-4 43l357 9l-1 -798h-175l1 620l-60 -1q7 -219 -12.5 -367.5t-82.5 -216.5q-43 -47 -107 -49l-3 112q15 0 28 14q39 42 55.5 171.5t14.5 241t-11 221.5z" />
    <glyph glyph-name="uni043C" unicode="&#x43c;" horiz-adv-x="567" 
d="M148 0h-115l-3 800l112 -2l123 -373l131 368l112 3l29 -784l-115 -4l-17 472l-107 -259l-71 1l-81 197z" />
    <glyph glyph-name="uni043D" unicode="&#x43d;" horiz-adv-x="449" 
d="M286 752h133v-744h-133v314h-118l-5 -326l-133 2l11 802l134 -2l-4 -290h115v244z" />
    <glyph glyph-name="uni043E" unicode="&#x43e;" horiz-adv-x="446" 
d="M261 601q-19 0 -30.5 -1.5t-32 -12t-32.5 -31t-21.5 -62.5t-9.5 -101q0 -78 8.5 -118t24 -52.5t45.5 -12.5q81 0 102 187q8 77 -3 127t-32 69q-9 8 -19 8zM210 48q-31 0 -56.5 7.5t-44 18.5t-33 31.5t-24 37.5t-16 45.5t-9.5 47.5t-5 50.5t-2 48.5v47q0 366 237 366
q60 0 101 -46q84 -92 64 -324q-27 -330 -212 -330z" />
    <glyph glyph-name="uni043F" unicode="&#x43f;" horiz-adv-x="454" 
d="M30 797l394 2v-799h-121v639h-118l3 -641l-158 2v797z" />
    <glyph glyph-name="uni0440" unicode="&#x440;" horiz-adv-x="449" 
d="M30 546v198q43 0 68 -0.5t72 -4.5t76 -12t67 -24.5t60.5 -39t40 -58.5t20.5 -82q6 -100 -60 -162q-61 -58 -174 -73v-288h-170v546zM299 440q29 28 26 75q-4 48 -34 73t-91 36v-225q68 12 99 41z" />
    <glyph glyph-name="uni0441" unicode="&#x441;" horiz-adv-x="566" 
d="M334 36h-18q-57 3 -108.5 29t-94 74t-68 126.5t-25.5 175.5q0 170 95 262q77 74 185 69q192 -7 246 -170l-143 -46q-7 21 -13 31.5t-30.5 22t-65.5 12.5q-45 2 -75 -27q-49 -46 -49 -154q0 -126 46 -189t107 -66q38 -1 52 7t38 40q6 8 10 12l118 -91q-2 -2 -4.5 -6
t-3.5 -6q-19 -25 -31 -37.5t-36 -31.5t-57 -28t-75 -9z" />
    <glyph glyph-name="uni0442" unicode="&#x442;" horiz-adv-x="428" 
d="M418 762v-159h-128l4 -556h-144l-4 556h-136v159h408z" />
    <glyph glyph-name="uni0443" unicode="&#x443;" horiz-adv-x="447" 
d="M10 727h99l77 -254l93 254h163l-254 -641h-163l99 269z" />
    <glyph glyph-name="uni0444" unicode="&#x444;" horiz-adv-x="783" 
d="M715 613q68 -75 57 -177q-12 -106 -91.5 -175.5t-205.5 -86.5v-170h-178v175q-133 23 -210 98t-77 185q0 112 81 179t206 87v72h178v-72q159 -24 240 -115zM150 462q0 -105 147 -140v264q-147 -30 -147 -124zM633 451q4 40 -22 69q-43 46 -136 67v-271q146 27 158 135z
" />
    <glyph glyph-name="uni0445" unicode="&#x445;" horiz-adv-x="609" 
d="M10 4l204 432l-193 364h154l112 -210l99 210h192l-190 -401l211 -395h-154l-129 242l-114 -242h-192z" />
    <glyph glyph-name="uni0446" unicode="&#x446;" horiz-adv-x="508" 
d="M484 188l14 -184l-113 -8l-7 91l-334 -4l-1 21l-13 693l138 2l10 -538l112 1l-6 515l113 1l6 -514l79 1l1 -77h1z" />
    <glyph glyph-name="uni0447" unicode="&#x447;" horiz-adv-x="528" 
d="M498 91l-180 -4l-4 234q-46 -8 -82 -8q-90 0 -145 42q-67 52 -67 150v191h135v-191q0 -33 14 -43q35 -26 142 -5l-4 255l180 3z" />
    <glyph glyph-name="uni0448" unicode="&#x448;" horiz-adv-x="707" 
d="M677 2l-634 -6l-13 801l139 2l10 -626l121 2l-10 622l138 2l10 -623l97 1l-10 620l139 2z" />
    <glyph glyph-name="uni0449" unicode="&#x449;" horiz-adv-x="754" 
d="M728 111l16 -187l-113 -9l-7 87l-581 -5l-13 801l139 2l10 -626l89 1l-10 623l138 2l10 -624l95 1l-10 621l139 2l10 -622l87 1v-69z" />
    <glyph glyph-name="uni044A" unicode="&#x44a;" horiz-adv-x="679" 
d="M592 418q60 -62 57 -160q-5 -84 -63 -133q-70 -60 -214 -60q-56 0 -127 9v1h-77v562l-138 6l5 118l207 -9h109v-254q166 -4 241 -80zM510 215q19 14 21 48q2 49 -23 72q-41 42 -157 44v-195q118 -4 159 31z" />
    <glyph glyph-name="uni044B" unicode="&#x44b;" horiz-adv-x="651" 
d="M621 753v-674h-153v674h153zM292 229q-34 -26 -95 -35l-1 171q42 -5 69.5 -17.5t37 -29.5t12 -27.5t2.5 -24.5q0 -18 -25 -37zM195 482l-3 250l-162 -2l5 -652l93 1q19 -3 40 -3q112 0 194 60q71 54 71 130q0 22 -4 44t-19 51.5t-39 52.5t-69.5 42.5t-106.5 25.5z" />
    <glyph glyph-name="uni044C" unicode="&#x44c;" horiz-adv-x="468" 
d="M197 502q76 -8 128 -34t74.5 -62t30.5 -64.5t8 -58.5q0 -77 -73 -131q-81 -61 -195 -61q-20 0 -41 3l-94 -1l-5 644l164 1zM295 246q25 19 25 37q0 15 -2.5 25.5t-12.5 28t-37 30t-70 17.5l1 -173q59 7 96 35z" />
    <glyph glyph-name="uni044D" unicode="&#x44d;" horiz-adv-x="637" 
d="M334 739q118 -21 195.5 -113.5t77.5 -213.5q0 -77 -38.5 -156t-107.5 -135.5t-149 -63.5q-13 -1 -38 -1q-159 0 -244 115l107 80q54 -69 164 -60q45 4 86.5 43t65.5 93h-243v170h243q-43 92 -142 110q-47 8 -97 -9t-83 -45l-88 101q53 45 131.5 72t159.5 13z" />
    <glyph glyph-name="uni044E" unicode="&#x44e;" horiz-adv-x="632" 
d="M546 700q83 -89 63 -318q-27 -325 -209 -325q-48 0 -83 18t-54 44.5t-30.5 67.5t-14.5 75t-4 79h-70l-4 -259l-110 2l9 634l111 -1l-4 -229h73q30 257 228 257q59 0 99 -45zM499 391q8 93 -3 153t-31 82q-9 9 -18 9q-19 0 -30 -1.5t-31 -14.5t-31.5 -37t-21 -74
t-9.5 -121q0 -93 8.5 -141t23.5 -63t44 -15q80 0 99 223z" />
    <glyph glyph-name="uni044F" unicode="&#x44f;" horiz-adv-x="461" 
d="M431 72l-151 -1l-1 262l-140 -257h-129l171 325q-36 10 -62.5 34t-38.5 53.5t-17.5 54.5t-5.5 47q0 71 66 120q89 68 303 54zM142 576q0 -44 29 -72.5t106 -38.5l-1 210l-20 -2q-20 -2 -28 -4t-24.5 -7t-27.5 -14.5t-20 -22.5q-14 -22 -14 -49z" />
    <glyph glyph-name="uni0451" unicode="&#x451;" horiz-adv-x="419" 
d="M241 896q0 28 20 48t49 21q26 1 47.5 -20t21.5 -49t-20.5 -48.5t-48.5 -20.5q-26 0 -47.5 23t-21.5 46zM51 896q0 28 20 48t49 21q26 1 47.5 -20t21.5 -49t-20.5 -48.5t-48.5 -20.5q-26 0 -47.5 23t-21.5 46zM187 661h212v139h-212h-157v-139v-127v-139v-230v-164h157
h212v164h-212v230h131v139h-131v127z" />
    <glyph glyph-name="endash" unicode="&#x2013;" horiz-adv-x="376" 
d="M14 373l-4 105l349 3l4 -104z" />
    <glyph glyph-name="emdash" unicode="&#x2014;" horiz-adv-x="461" 
d="M14 373l-4 105l437 2l4 -104z" />
    <glyph glyph-name="quoteleft" unicode="&#x2018;" horiz-adv-x="148" 
d="M123 881l6 -29q-47 -25 -47 -60q0 -9 9.5 -14.5t22 -14.5t16.5 -27q6 -27 -5 -44q-7 -11 -23.5 -19t-30.5 -8q-24 0 -42.5 18.5t-18.5 58.5q0 73 36.5 106t76.5 33z" />
    <glyph glyph-name="quoteright" unicode="&#x2019;" horiz-adv-x="148" 
d="M17 665l-6 29q47 25 47 60q0 9 -9.5 14.5t-22 14.5t-16.5 27q-6 26 4 44q8 11 24.5 19t30.5 8q24 0 42.5 -18.5t18.5 -58.5q0 -73 -36.5 -106t-76.5 -33z" />
    <glyph glyph-name="quotesinglbase" unicode="&#x201a;" horiz-adv-x="161" 
d="M27 -98l-6 31q47 26 47 55q0 9 -23.5 24.5t-26.5 35.5q-5 24 4 40q18 28 48 28q40 0 63 -41q24 -44 -12 -109q-18 -33 -46.5 -48.5t-47.5 -15.5z" />
    <glyph glyph-name="quotedblleft" unicode="&#x201c;" horiz-adv-x="275" 
d="M123 881l6 -29q-47 -25 -47 -60q0 -9 9.5 -14.5t22 -14.5t16.5 -27q6 -27 -5 -44q-7 -11 -23.5 -19t-30.5 -8q-24 0 -42.5 18.5t-18.5 58.5q0 73 36.5 106t76.5 33zM254 876l6 -29q-44 -23 -44 -51q0 -10 22 -25t25 -34q4 -25 -4 -37q-17 -27 -46 -27q-37 0 -59 39
q-23 42 11 104q17 31 44 45.5t45 14.5z" />
    <glyph glyph-name="quotedblright" unicode="&#x201d;" horiz-adv-x="275" 
d="M150 665l-5 29q46 26 46 60q0 9 -9.5 14.5t-22 14.5t-16.5 27q-6 27 5 44q7 11 24 19t31 8q23 0 41.5 -18.5t18.5 -58.5q0 -73 -36.5 -106t-76.5 -33zM19 670l-6 29q45 24 45 51q0 10 -22.5 25t-25.5 34q-4 25 4 37q17 27 46 27q37 0 59 -39q23 -42 -11 -104
q-17 -31 -44 -45.5t-45 -14.5z" />
    <glyph glyph-name="quotedblbase" unicode="&#x201e;" horiz-adv-x="275" 
d="M150 -110l-5 29q46 26 46 60q0 9 -9.5 14t-22 14.5t-16.5 26.5q-6 27 5 44q7 11 24 19t31 8q23 0 41.5 -18.5t18.5 -58.5q0 -72 -36.5 -105t-76.5 -33zM19 -105l-6 29q45 24 45 51q0 10 -22.5 25t-25.5 33q-4 25 4 37q17 27 46 27q37 0 59 -39q23 -41 -11 -103
q-17 -31 -44 -45.5t-45 -14.5z" />
    <glyph glyph-name="bullet" unicode="&#x2022;" horiz-adv-x="230" 
d="M9 429q0 44 31 75t75 31t75 -31t31 -75t-31 -75t-75 -31t-75 31t-31 75z" />
    <glyph glyph-name="ellipsis" unicode="&#x2026;" horiz-adv-x="512" 
d="M348 66q0 28 20 48t49 21q25 2 47 -19.5t22 -49.5t-20 -48t-49 -20q-26 0 -47.5 23t-21.5 45zM182 66q0 28 20 48t49 21q25 2 47 -19.5t22 -49.5t-20 -48t-49 -20q-26 0 -47.5 23t-21.5 45zM11 66q0 28 20 48t49 21q26 2 47.5 -19.5t21.5 -49.5t-20 -48t-49 -20
q-26 0 -47.5 23t-21.5 45z" />
    <glyph glyph-name="Euro" unicode="&#x20ac;" horiz-adv-x="661" 
d="M508 191l132 -50q-12 -62 -84.5 -104.5t-130.5 -42.5q-247 0 -305 244l-86 -6l-10 139q66 5 76 5q0 4 -1 16.5t-1 15.5q-42 -4 -59 -7l-22 126q24 3 87 9q12 88 47 143q40 63 114 100t154 34q68 -1 121.5 -32.5t82.5 -85.5l-122 -66q-29 20 -86 20q-96 3 -143 -59
q-13 -17 -23 -49q15 0 31 0.5t36 1.5t32 1q99 5 166 3l-5 -127q-59 2 -154 -3q-117 -3 -118 -3q1 -4 1 -17.5t1 -17.5h244v-139h-221q15 -47 50.5 -70.5t105.5 -23.5q16 0 44 13t46 32z" />
    <glyph glyph-name="_17" horiz-adv-x="1000" 
 />
    <glyph glyph-name="_18" horiz-adv-x="1000" 
 />
    <glyph glyph-name="_19" horiz-adv-x="1000" 
 />
    <glyph glyph-name="_257" horiz-adv-x="628" 
d="M397 656q34 4 98.5 -6.5t86.5 -26.5l-111 -624l-352 15l-80 609zM443 53l97 542q-19 14 -74.5 22.5t-86.5 5.5l-310 -28l82 -504zM169 123l259 -45l68 443l-68 -5l-111 -67l80 67l-148 -33q-43 16 -130 -11z" />
    <glyph glyph-name="_258" horiz-adv-x="449" 
d="M413 301l-32 -84l-138 120l-84 -114l-120 31l99 136l69 11l-53 7l-88 65l31 120l140 -105l94 83l84 -32l-105 -121z" />
    <glyph glyph-name="_259" horiz-adv-x="580" 
d="M260 96l-54 20l-84 -20q-42 31 -70 78q-6 4 -26 19q1 2 2 5.5t2 5t2 4.5t2 4.5t3 3.5t4 3.5t4.5 3t6.5 2.5l12 25l-14 26l15 13l20 -9l331 534l-9 9q12 19 19 23l5 -1v-1h3q4 5 12 5l3 6l9 -5l5 5q22 -8 56 -35l-2 -8q15 -4 45 -28l-3 -6h-1q-51 -88 -102 -160l10 -10
l-23 -35l2 1q-2 -2 -12.5 -14.5t-14.5 -20.5q-6 -3 -13 -19.5t-7 -24.5q0 -19 29.5 -48.5t29.5 -52.5q0 -25 -32.5 -72t-32.5 -70q0 -18 29.5 -50.5t71 -70t49.5 -45.5q-5 -5 -18 -21t-13 -19v-1q7 4 19.5 20.5t20.5 20.5q7 -2 7 -8q0 -33 -91 -145h-23q-3 2 -15.5 7.5
t-17.5 8.5q-65 54 -151 147zM407 315l-1 -1l1 1l1 -1q29 31 38 62v10q0 41 -42 54q-6 -1 -17 -4t-14.5 -3.5t-10.5 -3t-9 -4t-7.5 -5t-7 -7t-5.5 -9.5t-6.5 -13t-6.5 -17l17 3q24 -34 59 -34q9 0 25 4q-1 -17 -17 -31zM57 165v-1v1z" />
    <glyph glyph-name="_260" horiz-adv-x="496" 
d="M138 56l-13 -53q-29 20 -50 50t-27 50l-6 20l40 -31q-24 24 -36.5 49.5t-13.5 38.5v14q4 49 50 168l33 -93l-4 93q47 99 73.5 165t29.5 82l3 16q0 40 7 133q31 -95 49 -157t21 -77l2 -15q2 -21 -5.5 -74t-7.5 -55q0 -13 26 -71q-4 44 -3.5 73t4.5 42l3 14q13 40 29 111
q4 -62 13 -109.5t19.5 -71t20.5 -38.5t17 -18l6 -3q12 8 17.5 21.5t5.5 22.5v9q25 -72 22.5 -126.5t-17.5 -85.5l-15 -32q-6 -27 -18 -49t-25.5 -34t-26 -19.5t-21.5 -9.5l-8 -3l-30 -5q-4 2 47 18l-44 91.5t-21 40.5l-4 6l-5 -2q-11 -12 -25 -74l-53 116l-13 -116l-46 14
l56 -97z" />
    <glyph glyph-name="_261" horiz-adv-x="712" 
d="M0 -78l62 91l262 417l-41 131l14 33l72 -115l260 402l83 -19l-689 -980z" />
    <glyph glyph-name="_262" horiz-adv-x="1161" 
d="M253 194q-1 -1 -2 -1q1 0 2 1zM1119 242q1 -4 -3 -18q-1 -3 -4 -15t-5 -16q-1 -2 -31 -32q-25 -25 -34 -30q-3 -2 -13 -3t-13 0q-4 2 -8.5 12.5t-6.5 12.5q-1 -1 0 -9t2 -10q-1 0 -4 3t-6 2q-3 2 -10.5 6.5t-10.5 8.5q-41 41 -41 43q-1 1 -18.5 12l-33.5 21.5t-15 12.5
q-2 0 -10 3.5t-16 7.5l-7 3q-2 1 -14.5 5l-31 10t-23.5 8q-2 1 -59 15t-57 13q-1 1 -20 6l-57 15q4 0 12 -2q-19 4 -41.5 9.5l-42.5 10.5l-40 10l-36 9t-28.5 6.5t-18.5 4t-5 0.5q-94 21 -98 23q-3 -1 -6 -2.5t-5.5 -2.5t-6.5 -2q-6 -14 -17 -82q-17 25 -17 34q-1 -11 6 -38
q17 -61 22 -74q9 -28 8 -38q-1 6 -20 60l-7 23l-24 -48h-1h1l-4 -7l-33 20l-30 -9l-25 6l-37 2l-6 -11l136 -29l18 4l27 -9l2 6q5 -7 -3 -11q1 0 2 1q-4 -3 -41 -3q-109 4 -183 35q8 43 35.5 134t35.5 139q12 74 25 107q1 1 3 2.5t3 3.5l5.5 19.5t4.5 18.5l2 2q3 1 38 -4
q4 -1 25 -7l23.5 -5t25.5 -6.5t19 -7.5q2 -5 1 -9t-4 -12t-4 -13q0 -1 5 -21q9 -4 37.5 -8.5t37.5 -11.5q47 -38 50 -40q43 -29 160 -58q24 -6 82 -18l73 -15q143 -34 288 -98q52 -25 67 -34q51 -30 54 -41zM584 326q13 -4 22 -5q-4 1 -11.5 2.5t-10.5 2.5z" />
    <glyph glyph-name="_263" horiz-adv-x="712" 
d="M658 430q4 -17 6.5 -38.5t2.5 -44.5t-1.5 -48.5t-4 -49.5t-6 -49.5t-7 -46l-7 -40.5t-6 -33l-4.5 -23l-2 -10l-1 -3l-3 -2q-19 -15 -60.5 -30t-67 -22t-35.5 -9l-7 -2l-54 78h1l-27 65q-12 9 -40 20.5t-60 21l-61.5 17.5l-49.5 13l-21 5h-1l-1 1q-96 47 -96 319l1 1v2
q30 97 75 172q3 6 8.5 13t24 23.5t41.5 28.5t64 21.5t90 9.5q38 0 80 -6q6 0 19.5 -3.5t42.5 -19.5t55 -42q92 -94 112 -289zM349 771q-44 0 -81 -8.5t-59 -19t-39 -24.5t-22.5 -21t-9.5 -13q-16 -69 -18.5 -131.5t3.5 -101t18.5 -72.5t19 -45.5t13.5 -19.5l190 -116
l54 -130q15 -8 38 -8q53 0 133 48l66 236q-5 239 -122 359q-24 24 -51 39.5t-39 18.5t-16 3q-40 6 -78 6zM148 217q28 -5 101 -25.5t114 -40.5l-14 34l-194 112l-1 1q-3 3 -6 8t-11 20t-14.5 32.5t-13 46t-9.5 59.5t-1.5 74t8.5 89q-28 -62 -42 -110q-1 -16 0.5 -50
t7.5 -88.5t25.5 -100t49.5 -61.5zM611 55l9 37l15.5 66.5t15 81t9.5 84.5l-55 -226l-3 -2q-4 -4 -23.5 -15.5t-56 -25t-66.5 -13.5q-15 0 -22 2l29 -44q105 25 148 55zM355 220l-175 114q-38 62 -27 235l24 -29l161 -68l-154 80l-29 42q4 49 10 84q4 4 14 10
q170 -89 225 -182l40 -116q8 -100 10.5 -173.5t0.5 -96.5l-2 -23q-15 -2 -26 -3q-25 56 -43 87.5t-24 34.5zM367 571l-131 120l-7 20q75 23 151.5 21t100.5 -20q2 -1 8 -7l-91 -137zM415 530l45 92l66 36q42 -64 70 -150t19 -174q-2 -19 -6.5 -49t-24.5 -90.5t-46 -81.5
q-12 -7 -68 -13l-10 263l-29 109l17 -9l78 18h-78q-1 1 -5.5 4.5l-10 8t-9.5 7.5q-1 2 -4 13t-4 16z" />
    <glyph glyph-name="_264" horiz-adv-x="683" 
d="M263 145l-181 260q-9 11 96 25l4 1q-26 -2 -54.5 0t-51 5t-23.5 5q0 1 -4 12t-6 22t-3.5 28.5t3.5 35.5t15 37.5t31 39.5t51 38q31 6 58 2.5t50 -14t39.5 -21.5t25.5 -20l9 -9q34 32 73.5 50.5t61.5 21.5l22 2q40 -3 71 -15t47 -27t26.5 -30t12.5 -26l3 -10
q10 -52 -3.5 -107t-53 -112t-121.5 -108.5t-198 -85.5z" />
    <glyph glyph-name="_265" horiz-adv-x="551" 
d="M519 270l-262 11l49 -113l-79 -107l-195 339l232 348l70 -158l-89 -148l193 3l-41 -24l108 25z" />
    <glyph glyph-name="_266" horiz-adv-x="685" 
d="M26 343l315 338l318 -265l-110 -109l-110 94l-16 -277l-161 15l-11 220l68 99l-106 -108l-66 -69z" />
    <glyph glyph-name="_267" horiz-adv-x="575" 
d="M201 720l340 -313l-252 -335l-97 97l106 134l-250 5l-14 159l217 28l89 -43l-93 69l-81 46z" />
    <glyph glyph-name="_268" horiz-adv-x="694" 
d="M304 403l-14 300l202 -16l-29 -123l27 46l-4 -220l113 89l70 -123l-287 -221l-349 252l122 90z" />
    </font>
</defs>
</svg>
